<svg width="45" height="52" viewBox="0 0 45 52" fill="none" xmlns="http://www.w3.org/2000/svg">
<path d="M44.872 45.7522V52.0002H0.284V41.6342C5.538 39.2675 10.366 37.1848 14.768 35.3862C19.2173 33.5875 23.075 31.8362 26.341 30.1322C29.607 28.3808 32.163 26.5585 34.009 24.6652C35.9023 22.7245 36.92 20.4525 37.062 17.8492C37.1093 17.2338 37.0147 16.3345 36.778 15.1512C36.5413 13.9678 35.9497 12.7845 35.003 11.6012C34.1037 10.4178 32.7073 9.3765 30.814 8.47717C28.9207 7.53051 26.341 7.03351 23.075 6.98617C17.679 6.89151 13.7267 8.02751 11.218 10.3942C8.70933 12.7608 7.47867 16.1688 7.526 20.6182H0C0 18.2042 0.284 15.8375 0.852 13.5182C1.42 11.1515 2.53233 9.04517 4.189 7.19917C5.84567 5.35317 8.165 3.86217 11.147 2.72617C14.1763 1.54284 18.1523 0.951172 23.075 0.951172C26.3883 0.951172 29.2047 1.25884 31.524 1.87417C33.8907 2.44217 35.855 3.22317 37.417 4.21717C39.0263 5.16384 40.2807 6.2525 41.18 7.48317C42.1267 8.71384 42.8367 9.94451 43.31 11.1752C43.7833 12.4058 44.091 13.5892 44.233 14.7252C44.375 15.8138 44.446 16.7368 44.446 17.4942C44.446 21.3282 43.4283 24.5705 41.393 27.2212C39.3577 29.8245 36.5887 32.1438 33.086 34.1792C29.6307 36.2145 25.631 38.1315 21.087 39.9302C16.543 41.6815 11.7387 43.6222 6.674 45.7522H44.872Z" fill="white"/>
</svg>
