<svg width="50" height="52" viewBox="0 0 50 52" fill="none" xmlns="http://www.w3.org/2000/svg">
<path d="M49.842 33.8831C49.8893 37.6224 49.1557 40.6517 47.641 42.9711C46.1263 45.2431 44.1147 47.0181 41.606 48.2961C39.1447 49.5741 36.352 50.4261 33.228 50.8521C30.104 51.3254 26.98 51.5621 23.856 51.5621C19.7853 51.5621 16.259 51.0887 13.277 50.1421C10.295 49.1954 7.81 47.9411 5.822 46.3791C3.88133 44.8171 2.414 43.0421 1.42 41.0541C0.473333 39.0187 0 36.9361 0 34.8061H7.597C7.597 36.1314 7.952 37.4331 8.662 38.7111C9.41933 39.9417 10.5317 41.0541 11.999 42.0481C13.4663 43.0421 15.2887 43.8467 17.466 44.4621C19.6907 45.0774 22.294 45.3851 25.276 45.3851C28.7313 45.3851 31.5713 45.1011 33.796 44.5331C36.0207 43.9177 37.772 43.1131 39.05 42.1191C40.3753 41.1251 41.2747 40.0127 41.748 38.7821C42.2687 37.5041 42.529 36.2024 42.529 34.8771C42.529 33.4571 42.316 32.2264 41.89 31.1851C41.464 30.0964 40.7303 29.1971 39.689 28.4871C38.6477 27.7771 37.2277 27.2564 35.429 26.9251C33.6303 26.5464 31.3347 26.3571 28.542 26.3571H10.863V17.6241L39.902 6.40605L3.266 6.69005V0.300049H45.866V10.9501L20.519 20.251L28.045 20.1091V20.0381H28.187L28.4 20.1091H28.542L28.684 20.0381V20.1091C31.382 20.1091 33.9853 20.2747 36.494 20.606C39.05 20.9374 41.2983 21.5764 43.239 22.5231C45.227 23.4697 46.8127 24.8661 47.996 26.7121C49.1793 28.5107 49.7947 30.9011 49.842 33.8831Z" fill="white"/>
</svg>
