<svg width="397" height="119" viewBox="0 0 397 119" fill="none" xmlns="http://www.w3.org/2000/svg">
<path d="M395.36 27.4393C396.416 33.9722 392.137 41.195 383.123 48.6957C374.14 56.1715 360.592 63.8035 343.469 71.1482C309.23 85.8344 260.805 99.3269 206.313 108.134C151.82 116.94 101.61 119.388 64.4882 116.234C45.9236 114.657 30.6612 111.681 19.7802 107.415C8.86288 103.136 2.52636 97.6286 1.47059 91.0957C0.414809 84.5628 4.69404 77.3401 13.7075 69.8394C22.6911 62.3635 36.239 54.7315 53.3618 47.3869C87.6002 32.7007 136.025 19.2081 190.518 10.4015C245.011 1.59497 295.221 -0.852846 332.342 2.30091C350.907 3.87812 366.169 6.85408 377.05 11.1196C387.968 15.3993 394.304 20.9065 395.36 27.4393Z" fill="#FF4239" stroke="#1A1A1A"/>
</svg>
