<svg width="197" height="135" viewBox="0 0 197 135" fill="none" xmlns="http://www.w3.org/2000/svg">
<g id="Union" filter="url(#filter0_bd_42_162)">
<path fill-rule="evenodd" clip-rule="evenodd" d="M57.2474 31.7236C46.7616 31.324 37.9373 39.5004 37.5376 49.9862L36.957 65.2203C36.5573 75.7061 44.7338 84.5305 55.2196 84.9302L93.912 86.4049C93.9293 86.8758 94.1159 87.3511 94.5108 87.7407L99.5501 92.7111C100.287 93.4378 101.457 93.4824 102.247 92.8138L107.65 88.2413C108.073 87.8829 108.295 87.4233 108.348 86.9551L140.389 88.1763C150.875 88.5759 159.7 80.3995 160.099 69.9137L160.68 54.6796C161.08 44.1938 152.903 35.3694 142.417 34.9697L57.2474 31.7236Z" fill="white" fill-opacity="0.85" shape-rendering="crispEdges"/>
</g>
<defs>
<filter id="filter0_bd_42_162" x="0.942993" y="0.709473" width="195.751" height="133.578" filterUnits="userSpaceOnUse" color-interpolation-filters="sRGB">
<feFlood flood-opacity="0" result="BackgroundImageFix"/>
<feGaussianBlur in="BackgroundImageFix" stdDeviation="9.5"/>
<feComposite in2="SourceAlpha" operator="in" result="effect1_backgroundBlur_42_162"/>
<feColorMatrix in="SourceAlpha" type="matrix" values="0 0 0 0 0 0 0 0 0 0 0 0 0 0 0 0 0 0 127 0" result="hardAlpha"/>
<feOffset dy="5"/>
<feGaussianBlur stdDeviation="18"/>
<feComposite in2="hardAlpha" operator="out"/>
<feColorMatrix type="matrix" values="0 0 0 0 0 0 0 0 0 0 0 0 0 0 0 0 0 0 0.12 0"/>
<feBlend mode="normal" in2="effect1_backgroundBlur_42_162" result="effect2_dropShadow_42_162"/>
<feBlend mode="normal" in="SourceGraphic" in2="effect2_dropShadow_42_162" result="shape"/>
</filter>
</defs>
</svg>
