<svg width="121" height="121" viewBox="0 0 121 121" fill="none" xmlns="http://www.w3.org/2000/svg">
<path d="M59.7108 2.64285C60.1111 2.12829 60.8889 2.12829 61.2892 2.64285L68.2322 11.5664C69.1473 12.7425 70.787 13.0686 72.0825 12.3322L81.9118 6.74493C82.4786 6.42275 83.1972 6.72039 83.3701 7.349L86.3697 18.2502C86.7651 19.687 88.1551 20.6158 89.6338 20.4312L100.853 19.0307C101.5 18.95 102.05 19.5 101.969 20.1469L100.569 31.3662C100.384 32.8449 101.313 34.2349 102.75 34.6303L113.651 37.6299C114.28 37.8028 114.577 38.5214 114.255 39.0882L108.668 48.9175C107.931 50.213 108.258 51.8527 109.434 52.7678L118.357 59.7108C118.872 60.1111 118.872 60.8889 118.357 61.2892L109.434 68.2322C108.258 69.1473 107.931 70.787 108.668 72.0825L114.255 81.9118C114.577 82.4786 114.28 83.1972 113.651 83.3701L102.75 86.3697C101.313 86.7651 100.384 88.1551 100.569 89.6338L101.969 100.853C102.05 101.5 101.5 102.05 100.853 101.969L89.6338 100.569C88.1551 100.384 86.7651 101.313 86.3697 102.75L83.3701 113.651C83.1972 114.28 82.4786 114.577 81.9118 114.255L72.0825 108.668C70.787 107.931 69.1473 108.258 68.2322 109.434L61.2892 118.357C60.8889 118.872 60.1111 118.872 59.7108 118.357L52.7678 109.434C51.8527 108.258 50.213 107.931 48.9175 108.668L39.0882 114.255C38.5214 114.577 37.8028 114.28 37.6299 113.651L34.6303 102.75C34.2349 101.313 32.8449 100.384 31.3662 100.569L20.1469 101.969C19.5 102.05 18.95 101.5 19.0307 100.853L20.4312 89.6338C20.6158 88.1551 19.687 86.7651 18.2502 86.3697L7.349 83.3701C6.72039 83.1972 6.42275 82.4786 6.74493 81.9118L12.3322 72.0825C13.0686 70.787 12.7425 69.1473 11.5664 68.2322L2.64285 61.2892C2.12829 60.8889 2.12829 60.1111 2.64285 59.7108L11.5664 52.7678C12.7425 51.8527 13.0686 50.213 12.3322 48.9175L6.74493 39.0882C6.42275 38.5214 6.72039 37.8028 7.349 37.6299L18.2502 34.6303C19.687 34.2349 20.6158 32.8449 20.4312 31.3662L19.0307 20.1469C18.95 19.5 19.5 18.95 20.1469 19.0307L31.3662 20.4312C32.8449 20.6158 34.2349 19.687 34.6303 18.2502L37.6299 7.349C37.8028 6.72039 38.5214 6.42275 39.0882 6.74493L48.9175 12.3322C50.213 13.0686 51.8527 12.7425 52.7678 11.5664L59.7108 2.64285Z" fill="#FECC3D" stroke="#FF4239" stroke-width="2"/>
<path d="M44.87 65.416V67H33.26V65.416H38.138V55.984H33.26V54.4H44.87V55.984H39.902V65.416H44.87ZM48.981 55.57V67H47.217V54.4H50.295L58.467 65.83V54.4H60.213V67H57.117L48.981 55.57ZM75.1945 63.526C75.1945 64.09 75.0805 64.612 74.8525 65.092C74.6365 65.56 74.2705 65.968 73.7545 66.316C73.2385 66.652 72.5545 66.916 71.7025 67.108C70.8625 67.3 69.8125 67.396 68.5525 67.396C67.2925 67.396 66.2605 67.252 65.4565 66.964C64.6645 66.676 64.0345 66.31 63.5665 65.866C63.1105 65.41 62.7805 64.912 62.5765 64.372C62.3845 63.82 62.2645 63.28 62.2165 62.752H64.1245C64.1965 63.724 64.6045 64.48 65.3485 65.02C66.1045 65.548 67.1905 65.812 68.6065 65.812C70.0705 65.812 71.2225 65.644 72.0625 65.308C72.9145 64.96 73.3465 64.408 73.3585 63.652C73.3705 62.896 72.9985 62.356 72.2425 62.032C71.4865 61.708 70.3105 61.498 68.7145 61.402C67.6585 61.366 66.7405 61.294 65.9605 61.186C65.1925 61.078 64.5565 60.898 64.0525 60.646C63.5485 60.394 63.1765 60.052 62.9365 59.62C62.6965 59.188 62.5765 58.624 62.5765 57.928C62.5765 57.412 62.6965 56.92 62.9365 56.452C63.1765 55.984 63.5545 55.576 64.0705 55.228C64.5985 54.868 65.2705 54.586 66.0865 54.382C66.9025 54.166 67.8865 54.058 69.0385 54.058C70.2745 54.058 71.2765 54.196 72.0445 54.472C72.8245 54.748 73.4365 55.102 73.8805 55.534C74.3365 55.966 74.6545 56.452 74.8345 56.992C75.0265 57.532 75.1465 58.066 75.1945 58.594H73.2865C73.2385 58.03 73.1005 57.562 72.8725 57.19C72.6445 56.806 72.3385 56.5 71.9545 56.272C71.5825 56.044 71.1445 55.882 70.6405 55.786C70.1365 55.69 69.5845 55.642 68.9845 55.642C68.3005 55.642 67.6765 55.684 67.1125 55.768C66.5605 55.852 66.0805 55.984 65.6725 56.164C65.2765 56.332 64.9645 56.554 64.7365 56.83C64.5205 57.094 64.4125 57.418 64.4125 57.802C64.4125 58.174 64.4965 58.486 64.6645 58.738C64.8445 58.978 65.1205 59.176 65.4925 59.332C65.8645 59.476 66.3385 59.59 66.9145 59.674C67.5025 59.746 68.1925 59.806 68.9845 59.854C70.0885 59.914 71.0305 60.016 71.8105 60.16C72.5905 60.292 73.2325 60.496 73.7365 60.772C74.2405 61.048 74.6065 61.408 74.8345 61.852C75.0745 62.296 75.1945 62.854 75.1945 63.526ZM83.6322 55.984V67H81.8682V55.984H76.2702V54.4H89.2482V55.984H83.6322Z" fill="#FF4239"/>
</svg>
