<svg width="102" height="69" viewBox="0 0 102 69" fill="none" xmlns="http://www.w3.org/2000/svg">
<path id="Star 3" d="M59.312 15.6392L74.9088 6.68826L71.3833 19.7984L70.9978 21.2319L72.4711 21.0506L91.7764 18.6748L79.5398 28.432L77.9429 29.7053L79.928 30.1858L97.7497 34.5L79.928 38.8142L77.9429 39.2947L79.5398 40.568L91.7764 50.3252L72.4711 47.9494L70.9978 47.7681L71.3833 49.2016L74.9088 62.3117L59.312 53.3608L58.4143 52.8456L57.9303 53.7605L51 66.8614L44.0697 53.7605L43.5857 52.8456L42.688 53.3608L27.0912 62.3117L30.6167 49.2016L31.0022 47.7681L29.5289 47.9494L10.2236 50.3252L22.4602 40.568L24.057 39.2947L22.072 38.8142L4.25028 34.5L22.072 30.1858L24.057 29.7053L22.4602 28.432L10.2236 18.6748L29.5289 21.0506L31.0022 21.2319L30.6167 19.7984L27.0912 6.68826L42.688 15.6392L43.5857 16.1544L44.0697 15.2395L51 2.13858L57.9303 15.2395L58.4143 16.1544L59.312 15.6392Z" fill="#FAF773" stroke="#FF4239" stroke-width="2"/>
</svg>
