<svg width="98" height="98" viewBox="0 0 98 98" fill="none" xmlns="http://www.w3.org/2000/svg">
<g id="Group 14">
<path id="Star 2" d="M48.2108 2.64285C48.6111 2.12829 49.3889 2.12829 49.7892 2.64285L54.9105 9.22493C55.8255 10.4011 57.4652 10.7272 58.7607 9.9908L66.0109 5.86955C66.5777 5.54736 67.2963 5.845 67.4693 6.47362L69.6818 14.5145C70.0771 15.9512 71.4672 16.88 72.9459 16.6955L81.2214 15.6625C81.8683 15.5817 82.4183 16.1317 82.3375 16.7786L81.3045 25.0541C81.12 26.5328 82.0488 27.9229 83.4855 28.3182L91.5264 30.5307C92.155 30.7037 92.4526 31.4223 92.1305 31.9891L88.0092 39.2393C87.2728 40.5348 87.599 42.1745 88.7751 43.0896L95.3571 48.2108C95.8717 48.6111 95.8717 49.3889 95.3571 49.7892L88.7751 54.9105C87.599 55.8255 87.2728 57.4652 88.0092 58.7607L92.1305 66.0109C92.4526 66.5777 92.155 67.2963 91.5264 67.4693L83.4855 69.6818C82.0488 70.0771 81.12 71.4672 81.3045 72.9459L82.3375 81.2214C82.4183 81.8683 81.8683 82.4183 81.2214 82.3375L72.9459 81.3045C71.4672 81.12 70.0771 82.0488 69.6818 83.4855L67.4693 91.5264C67.2963 92.155 66.5777 92.4526 66.0109 92.1305L58.7607 88.0092C57.4652 87.2728 55.8255 87.599 54.9104 88.7751L49.7892 95.3571C49.3889 95.8717 48.6111 95.8717 48.2108 95.3571L43.0895 88.7751C42.1745 87.599 40.5348 87.2728 39.2393 88.0092L31.9891 92.1305C31.4223 92.4526 30.7037 92.155 30.5307 91.5264L28.3182 83.4855C27.9229 82.0488 26.5328 81.12 25.0541 81.3045L16.7786 82.3375C16.1317 82.4183 15.5817 81.8683 15.6625 81.2214L16.6955 72.9459C16.88 71.4672 15.9512 70.0771 14.5145 69.6818L6.47362 67.4693C5.845 67.2963 5.54737 66.5777 5.86955 66.0109L9.9908 58.7607C10.7272 57.4652 10.4011 55.8255 9.22493 54.9104L2.64285 49.7892L2.02878 50.5785L2.64285 49.7892C2.12829 49.3889 2.12829 48.6111 2.64285 48.2108L9.22493 43.0895C10.4011 42.1745 10.7272 40.5348 9.9908 39.2393L5.86955 31.9891C5.54736 31.4223 5.84501 30.7037 6.47361 30.5307L14.5145 28.3182C15.9512 27.9228 16.88 26.5328 16.6955 25.0541L15.6625 16.7786C15.5817 16.1317 16.1317 15.5817 16.7786 15.6625L25.0541 16.6955C26.5328 16.88 27.9228 15.9512 28.3182 14.5145L30.5307 6.47362C30.7037 5.84501 31.4223 5.54736 31.9891 5.86955L39.2393 9.9908C40.5348 10.7272 42.1745 10.4011 43.0896 9.22493L48.2108 2.64285L47.4215 2.02878L48.2108 2.64285Z" fill="#FECC3D" stroke="#FF4239" stroke-width="2"/>
<g id="Group 9">
<line id="Line 30" x1="47.6038" y1="60.4501" x2="61.4897" y2="60.4501" stroke="#FF4239" stroke-width="2"/>
<line id="Line 31" x1="62.093" y1="47.5641" x2="62.093" y2="61.4501" stroke="#FF4239" stroke-width="2"/>
<line id="Line 32" x1="37.8604" y1="36.6869" x2="61.7063" y2="60.5328" stroke="#FF4239" stroke-width="2"/>
</g>
</g>
</svg>
