<svg width="81" height="61" viewBox="0 0 81 61" fill="none" xmlns="http://www.w3.org/2000/svg">
<mask id="path-1-inside-1_12_174" fill="white">
<path fill-rule="evenodd" clip-rule="evenodd" d="M0 61C10.4349 61 19.6254 55.5837 25 47.3655V61C35.8913 61 45.4708 55.474 51 47.1162V61C67.5685 61 81 47.3447 81 30.5C81 13.6553 67.5685 0 51 0V13.8838C45.4708 5.52603 35.8913 0 25 0V13.6345C19.6254 5.41634 10.4349 0 0 0V61Z"/>
</mask>
<path fill-rule="evenodd" clip-rule="evenodd" d="M0 61C10.4349 61 19.6254 55.5837 25 47.3655V61C35.8913 61 45.4708 55.474 51 47.1162V61C67.5685 61 81 47.3447 81 30.5C81 13.6553 67.5685 0 51 0V13.8838C45.4708 5.52603 35.8913 0 25 0V13.6345C19.6254 5.41634 10.4349 0 0 0V61Z" fill="#FECC3D"/>
<path d="M25 47.3655H27V40.6532L23.3262 46.2708L25 47.3655ZM0 61H-2V63H0V61ZM25 61H23V63H25V61ZM51 47.1162H53V40.4682L49.332 46.0127L51 47.1162ZM51 61H49V63H51V61ZM51 0V-2H49V0H51ZM51 13.8838L49.332 14.9873L53 20.5318V13.8838H51ZM25 0V-2H23V0H25ZM25 13.6345L23.3262 14.7292L27 20.3468V13.6345H25ZM0 0V-2H-2V0H0ZM23.3262 46.2708C18.2999 53.9563 9.72231 59 0 59V63C11.1474 63 20.9508 57.211 26.6738 48.4601L23.3262 46.2708ZM27 61V47.3655H23V61H27ZM49.332 46.0127C44.1627 53.8265 35.2013 59 25 59V63C36.5813 63 46.779 57.1214 52.668 48.2197L49.332 46.0127ZM49 47.1162V61H53V47.1162H49ZM51 63C68.7041 63 83 48.418 83 30.5H79C79 46.2714 66.4329 59 51 59V63ZM83 30.5C83 12.582 68.7041 -2 51 -2V2C66.4329 2 79 14.7286 79 30.5H83ZM49 0V13.8838H53V0H49ZM25 2C35.2013 2 44.1627 7.17349 49.332 14.9873L52.668 12.7803C46.779 3.87858 36.5813 -2 25 -2V2ZM27 13.6345V0H23V13.6345H27ZM0 2C9.72231 2 18.2999 7.04371 23.3262 14.7292L26.6738 12.5399C20.9508 3.78897 11.1474 -2 0 -2V2ZM2 61V0H-2V61H2Z" fill="#FF4239" mask="url(#path-1-inside-1_12_174)"/>
</svg>
