<svg width="412" height="172" viewBox="0 0 412 172" fill="none" xmlns="http://www.w3.org/2000/svg">
<path d="M403.36 58.4393C404.416 64.9722 400.137 72.195 391.123 79.6957C382.14 87.1715 368.592 94.8035 351.469 102.148C317.23 116.834 268.805 130.327 214.313 139.134C159.82 147.94 109.61 150.388 72.4882 147.234C53.9236 145.657 38.6612 142.681 27.7802 138.415C16.8629 134.136 10.5264 128.629 9.47059 122.096C8.41481 115.563 12.694 108.34 21.7075 100.839C30.6911 93.3635 44.239 85.7315 61.3618 78.3869C95.6002 63.7007 144.025 50.2081 198.518 41.4015C253.011 32.595 303.221 30.1472 340.342 33.3009C358.907 34.8781 374.169 37.8541 385.05 42.1196C395.968 46.3993 402.304 51.9065 403.36 58.4393Z" stroke="#1A1A1A"/>
<path d="M402.36 49.4393C403.416 55.9722 399.137 63.195 390.123 70.6957C381.14 78.1715 367.592 85.8035 350.469 93.1482C316.23 107.834 267.805 121.327 213.313 130.134C158.82 138.94 108.61 141.388 71.4882 138.234C52.9236 136.657 37.6612 133.681 26.7802 129.415C15.8629 125.136 9.52636 119.629 8.47059 113.096C7.41481 106.563 11.694 99.3401 20.7075 91.8394C29.6911 84.3635 43.239 76.7315 60.3618 69.3869C94.6002 54.7007 143.025 41.2081 197.518 32.4015C252.011 23.595 302.221 21.1472 339.342 24.3009C357.907 25.8781 373.169 28.8541 384.05 33.1196C394.968 37.3993 401.304 42.9065 402.36 49.4393Z" fill="#FF4239" stroke="#1A1A1A"/>
<path d="M84.1879 110.989L84.8043 114.803L82.0955 115.241L81.0859 108.994L81.6387 108.905C82.5696 108.698 83.281 108.186 83.773 107.369C84.2804 106.53 84.6398 105.536 84.851 104.386C85.0593 103.218 85.1591 101.964 85.1504 100.622C85.1386 99.2629 85.0699 97.9598 84.9441 96.7132C84.8367 95.4637 84.7026 94.3414 84.5417 93.3463C84.3964 92.3298 84.3049 91.5882 84.2673 91.1216L99.6359 88.6379L102.37 105.554L105.106 105.112L106.116 111.359L103.407 111.797L102.791 107.982L84.1879 110.989ZM87.2863 93.1297C87.4097 94.2442 87.5418 95.4709 87.6825 96.8096C87.8202 98.1299 87.8857 99.4713 87.879 100.834C87.8694 102.178 87.7586 103.482 87.5468 104.745C87.3534 106.005 86.978 107.134 86.4207 108.132L99.6609 105.992L97.3201 91.5081L87.2863 93.1297ZM128.434 93.8826C128.723 95.6701 128.697 97.2626 128.355 98.6603C128.011 100.04 127.41 101.233 126.552 102.242C125.694 103.25 124.605 104.06 123.285 104.67C121.969 105.299 120.481 105.747 118.823 106.015C117.164 106.283 115.61 106.317 114.159 106.117C112.706 105.898 111.413 105.445 110.281 104.758C109.146 104.053 108.199 103.109 107.441 101.927C106.679 100.726 106.16 99.2692 105.883 97.5554C105.6 95.8048 105.63 94.2306 105.971 92.8329C106.309 91.4168 106.905 90.1861 107.757 89.1407C108.609 88.0954 109.69 87.2399 111.001 86.5743C112.312 85.9087 113.796 85.4418 115.455 85.1738C117.113 84.9058 118.671 84.8904 120.127 85.1278C121.584 85.3651 122.881 85.8456 124.019 86.5693C125.157 87.293 126.108 88.2644 126.872 89.4834C127.637 90.7024 128.157 92.1688 128.434 93.8826ZM108.767 97.1461C108.972 98.4176 109.348 99.5104 109.892 100.425C110.453 101.317 111.146 102.037 111.972 102.584C112.813 103.11 113.778 103.465 114.866 103.648C115.97 103.81 117.158 103.788 118.43 103.583C119.701 103.377 120.826 103.025 121.804 102.527C122.801 102.026 123.607 101.394 124.221 100.633C124.851 99.8507 125.282 98.949 125.514 97.9283C125.762 96.8861 125.781 95.72 125.573 94.4301C125.367 93.1586 124.982 92.058 124.415 91.1285C123.865 90.1775 123.164 89.4114 122.314 88.8303C121.479 88.2278 120.507 87.8271 119.397 87.6283C118.302 87.4081 117.119 87.4008 115.848 87.6062C114.576 87.8117 113.445 88.1836 112.454 88.7219C111.479 89.2388 110.679 89.907 110.055 90.7263C109.447 91.5243 109.022 92.4628 108.78 93.5418C108.557 94.6179 108.553 95.8193 108.767 97.1461ZM165.424 92.0741C165.749 94.0827 165.347 95.632 164.218 96.722C163.105 97.7906 161.332 98.5215 158.9 98.9146L146.046 100.992L142.919 81.6428L154.999 79.6907C156.086 79.515 157.075 79.4309 157.964 79.4383C158.87 79.4244 159.666 79.551 160.352 79.8183C161.035 80.0672 161.591 80.4689 162.021 81.0234C162.467 81.5565 162.765 82.2929 162.917 83.2328C163.078 84.2278 162.999 85.0821 162.679 85.7956C162.357 86.4906 161.895 87.0852 161.294 87.5794C162.444 87.7907 163.358 88.2386 164.035 88.9232C164.729 89.5865 165.192 90.6367 165.424 92.0741ZM146.875 88.917L155.996 87.4428C156.789 87.3148 157.465 87.1677 158.024 87.0017C158.583 86.8357 159.022 86.623 159.339 86.3637C159.675 86.1015 159.897 85.7819 160.007 85.405C160.131 85.0066 160.149 84.531 160.06 83.9782C159.97 83.4254 159.797 82.9995 159.541 82.7006C159.3 82.3802 158.973 82.1684 158.559 82.0651C158.161 81.9404 157.672 81.8965 157.091 81.9336C156.511 81.9706 155.843 82.0502 155.088 82.1723L146.021 83.6375L146.875 88.917ZM148.362 98.1216L158.507 96.4821C159.446 96.3303 160.199 96.133 160.765 95.8902C161.328 95.6291 161.742 95.3258 162.008 94.9803C162.289 94.6134 162.45 94.2092 162.493 93.7674C162.553 93.3228 162.542 92.8424 162.458 92.3265C162.372 91.7921 162.241 91.3311 162.065 90.9436C161.888 90.556 161.611 90.2416 161.231 90.0004C160.852 89.7592 160.346 89.614 159.714 89.5648C159.101 89.5127 158.306 89.5656 157.329 89.7234L147.268 91.3494L148.362 98.1216ZM173.191 90.5919L171.236 96.9209L168.223 97.4078L174.633 76.5177L179.221 75.7761L191.884 93.5839L188.844 94.0753L185.022 88.6799L173.191 90.5919ZM173.987 87.9673L183.44 86.4396L177.168 77.6396L173.987 87.9673ZM195.477 84.4092L196.831 92.7845L194.122 93.2223L190.995 73.8734L193.704 73.4356L195.066 81.8662L203.884 80.4412L208.907 70.9787L212.251 70.4382L206.556 81.0021L216.594 89.5906L213.056 90.1623L204.599 82.9351L195.477 84.4092ZM222.671 82.5956L220.715 88.9246L217.702 89.4115L224.112 68.5214L228.7 67.7798L241.363 85.5876L238.323 86.079L234.501 80.6836L222.671 82.5956ZM223.466 79.971L232.919 78.4433L226.647 69.6432L223.466 79.971ZM244.813 75.5284L246.31 84.7882L243.601 85.226L240.474 65.8771L243.183 65.4393L244.42 73.0959L258.849 70.7641L257.612 63.1074L260.321 62.6697L263.448 82.0186L260.739 82.4564L259.242 73.1965L244.813 75.5284ZM286.787 71.9218C286.628 74.33 285.725 76.2344 284.08 77.6348C282.431 79.0169 280.178 79.9387 277.322 80.4003C275.59 80.6803 274.005 80.7001 272.567 80.4598C271.129 80.2195 269.871 79.7514 268.794 79.0556C267.715 78.3414 266.826 77.4072 266.129 76.2529C265.432 75.0987 264.958 73.7476 264.708 72.1997L264.628 71.7022C264.369 70.099 264.387 68.6306 264.682 67.2971C264.977 65.9637 265.526 64.7971 266.329 63.7976C267.128 62.7796 268.174 61.9393 269.467 61.2767C270.756 60.5956 272.266 60.1151 273.999 59.8352C275.473 59.5969 276.833 59.5284 278.078 59.6297C279.342 59.728 280.465 60.0097 281.448 60.4749C282.446 60.9186 283.304 61.5458 284.021 62.3564C284.738 63.1671 285.287 64.1656 285.668 65.352L282.683 65.8345C282.383 65.1456 281.964 64.5421 281.426 64.0238C280.904 63.4842 280.286 63.0546 279.573 62.735C278.875 62.394 278.084 62.1814 277.201 62.0973C276.333 61.9918 275.392 62.0209 274.378 62.1847C273.033 62.4021 271.887 62.7954 270.939 63.3646C269.988 63.9153 269.228 64.596 268.659 65.4064C268.09 66.2168 267.711 67.1479 267.522 68.1996C267.348 69.2298 267.357 70.3346 267.547 71.514C267.729 72.6381 268.063 73.6524 268.55 74.5571C269.055 75.4587 269.705 76.2046 270.5 76.7946C271.295 77.3847 272.232 77.8005 273.311 78.0421C274.387 78.2653 275.597 78.2682 276.942 78.0508C278.988 77.7202 280.612 77.0608 281.813 76.0724C283.03 75.0626 283.712 73.8369 283.857 72.3953L286.787 71.9218ZM307.425 72.4154L307.819 74.8478L289.99 77.7291L289.597 75.2967L297.088 74.0861L294.747 59.602L287.256 60.8126L286.863 58.3802L304.692 55.4989L305.085 57.9313L297.456 59.1642L299.796 73.6483L307.425 72.4154ZM323.753 45.1291C323.896 46.0136 323.839 46.8357 323.584 47.5956C323.329 48.3554 322.919 49.0362 322.354 49.6379C321.79 50.2397 321.087 50.7503 320.247 51.1696C319.405 51.5706 318.467 51.8544 317.435 52.0212C316.403 52.188 315.426 52.2231 314.503 52.1264C313.576 52.0114 312.743 51.7679 312.002 51.396C311.277 51.0027 310.673 50.4857 310.191 49.845C309.707 49.1859 309.39 48.3957 309.241 47.4743L311.922 47.041C312.128 48.1989 312.675 49.0087 313.563 49.4704C314.469 49.929 315.641 50.0422 317.078 49.8099C318.515 49.5776 319.587 49.0735 320.294 48.2975C321.016 47.5 321.293 46.5854 321.127 45.5534L323.753 45.1291ZM325.352 54.1454L315.787 73.5884L311.116 74.3434L307.98 54.9391L310.744 54.4924L313.558 71.9065L323.1 52.4956L327.799 51.7362L330.934 71.1404L328.17 71.5871L325.352 54.1454Z" fill="white"/>
</svg>
