<svg width="106" height="56" viewBox="0 0 106 56" fill="none" xmlns="http://www.w3.org/2000/svg">
<g id="Group 11">
<path id="Vector 2" d="M1 15.5333L7.98896 8.25791C12.3176 3.75183 19.5258 3.75182 23.8545 8.2579L26.5281 11.0411C30.8568 15.5471 38.065 15.5471 42.3936 11.0411L45.0672 8.2579C49.3959 3.75182 56.6041 3.75182 60.9328 8.2579L63.6064 11.0411C67.935 15.5471 75.1432 15.5471 79.4719 11.0411L82.1455 8.2579C86.4742 3.75182 93.6824 3.75183 98.011 8.2579L105 15.5333" stroke="#FF4239" stroke-width="2"/>
<path id="Vector 3" d="M1 33.1063L8.45088 26.2119C12.6674 22.3103 19.1761 22.3103 23.3926 26.2119L26.99 29.5407C31.2065 33.4422 37.7152 33.4422 41.9317 29.5407L45.5291 26.2119C49.7456 22.3103 56.2544 22.3103 60.4709 26.2119L64.0683 29.5407C68.2848 33.4422 74.7935 33.4422 79.01 29.5407L82.6074 26.2119C86.8239 22.3103 93.3326 22.3103 97.5491 26.2119L105 33.1063" stroke="#FF4239" stroke-width="2"/>
<path id="Vector 4" d="M1 52.4053L8.45088 45.5108C12.6674 41.6092 19.1761 41.6092 23.3926 45.5108L26.99 48.8396C31.2065 52.7412 37.7152 52.7412 41.9317 48.8396L45.5291 45.5108C49.7456 41.6092 56.2544 41.6092 60.4709 45.5108L64.0683 48.8396C68.2848 52.7412 74.7935 52.7412 79.01 48.8396L82.6074 45.5108C86.8239 41.6092 93.3326 41.6092 97.5491 45.5108L105 52.4053" stroke="#FF4239" stroke-width="2"/>
</g>
</svg>
