<svg width="416" height="527" viewBox="0 0 416 527" fill="none" xmlns="http://www.w3.org/2000/svg">
<path d="M78.7525 224.383L145.206 210.974L146.157 210.782L145.994 209.826L131.575 124.983L183.751 160.888L184.989 161.74L185.297 160.27L205.329 64.6845L229.746 139.398L230.427 141.48L231.554 139.601L280.099 58.7035L270.722 152.582L270.504 154.762L272.294 153.498L336.499 108.156L295.48 196.786L294.849 198.149L296.35 198.205L359.643 200.568L297.407 260.006L296.706 260.676L297.353 261.397L342.645 311.841L276.192 325.251L275.241 325.442L275.404 326.398L289.823 411.241L237.647 375.336L236.409 374.484L236.101 375.954L216.069 471.54L191.652 396.827L190.971 394.744L189.844 396.623L141.298 477.521L150.676 383.642L150.894 381.462L149.104 382.726L84.8991 428.068L125.918 339.438L126.549 338.075L125.048 338.019L61.7552 335.656L123.991 276.218L124.692 275.548L124.044 274.827L78.7525 224.383Z" fill="#FF4239" stroke="#FF4239" stroke-width="2"/>
<path d="M71.7525 214.383L138.206 200.974L139.157 200.782L138.994 199.826L124.575 114.983L176.751 150.888L177.989 151.74L178.297 150.27L198.329 54.6845L222.746 129.398L223.427 131.48L224.554 129.601L273.099 48.7035L263.722 142.582L263.504 144.762L265.294 143.498L329.499 98.1558L288.48 186.786L287.849 188.149L289.35 188.205L352.643 190.568L290.407 250.006L289.706 250.676L290.353 251.397L335.645 301.841L269.192 315.251L268.241 315.442L268.404 316.398L282.823 401.241L230.647 365.336L229.409 364.484L229.101 365.954L209.069 461.54L184.652 386.827L183.971 384.744L182.844 386.623L134.298 467.521L143.676 373.642L143.894 371.462L142.104 372.726L77.8991 418.068L118.918 329.438L119.549 328.075L118.048 328.019L54.7552 325.656L116.991 266.218L117.692 265.548L117.044 264.827L71.7525 214.383Z" fill="#FAF773" stroke="#FF4239" stroke-width="2"/>
<path d="M117.012 260.664L109.056 302.551H97.7919L85 256.449H91.4914L103.329 299.126L111.411 256.449H122.548L130.567 298.731L142.277 256.449H148.769L135.977 302.551H124.903L117.012 260.664Z" fill="#FF4239"/>
<path d="M153.529 279.039C153.656 274.868 154.356 271.267 155.629 268.238C156.944 265.208 158.726 262.728 160.975 260.796C163.266 258.82 165.96 257.371 169.057 256.449C172.197 255.483 175.676 255 179.494 255C183.313 255 186.771 255.505 189.868 256.515C193.007 257.481 195.702 258.952 197.95 260.927C200.241 262.903 202.023 265.406 203.296 268.435C204.611 271.421 205.333 274.956 205.46 279.039V280.224C205.333 284.308 204.611 287.864 203.296 290.894C202.023 293.879 200.241 296.338 197.95 298.27C195.702 300.202 193.007 301.629 189.868 302.551C186.771 303.517 183.313 304 179.494 304C175.676 304 172.197 303.517 169.057 302.551C165.96 301.629 163.266 300.202 160.975 298.27C158.726 296.294 156.944 293.814 155.629 290.828C154.356 287.842 153.656 284.308 153.529 280.224V279.039ZM179.494 260.796C176.567 260.796 173.894 261.191 171.475 261.981C169.1 262.772 167.063 263.957 165.366 265.538C163.711 267.074 162.417 269.028 161.484 271.399C160.593 273.726 160.147 276.47 160.147 279.632C160.147 282.661 160.593 285.34 161.484 287.667C162.417 289.95 163.711 291.882 165.366 293.462C167.063 294.999 169.1 296.185 171.475 297.019C173.894 297.809 176.567 298.204 179.494 298.204C182.422 298.204 185.074 297.809 187.449 297.019C189.868 296.228 191.904 295.065 193.559 293.528C195.256 291.948 196.55 290.016 197.441 287.733C198.375 285.405 198.841 282.705 198.841 279.632C198.841 276.602 198.375 273.924 197.441 271.597C196.55 269.27 195.256 267.316 193.559 265.735C191.904 264.111 189.868 262.881 187.449 262.047C185.074 261.213 182.422 260.796 179.494 260.796Z" fill="#FF4239"/>
<path d="M242.243 260.664L234.288 302.551H223.023L210.232 256.449H216.723L228.56 299.126L236.643 256.449H247.78L255.799 298.731L267.509 256.449H274L261.208 302.551H250.135L242.243 260.664Z" fill="#FF4239"/>
<path d="M113.012 256.664L105.056 298.551H93.7919L81 252.449H87.4914L99.3287 295.126L107.411 252.449H118.548L126.567 294.731L138.277 252.449H144.769L131.977 298.551H120.903L113.012 256.664Z" fill="#FAAB5F"/>
<path d="M149.529 275.039C149.656 270.868 150.356 267.267 151.629 264.238C152.944 261.208 154.726 258.728 156.975 256.796C159.266 254.82 161.96 253.371 165.057 252.449C168.197 251.483 171.676 251 175.494 251C179.313 251 182.771 251.505 185.868 252.515C189.007 253.481 191.702 254.952 193.95 256.927C196.241 258.903 198.023 261.406 199.296 264.435C200.611 267.421 201.333 270.956 201.46 275.039V276.224C201.333 280.308 200.611 283.864 199.296 286.894C198.023 289.879 196.241 292.338 193.95 294.27C191.702 296.202 189.007 297.629 185.868 298.551C182.771 299.517 179.313 300 175.494 300C171.676 300 168.197 299.517 165.057 298.551C161.96 297.629 159.266 296.202 156.975 294.27C154.726 292.294 152.944 289.814 151.629 286.828C150.356 283.842 149.656 280.308 149.529 276.224V275.039ZM175.494 256.796C172.567 256.796 169.894 257.191 167.475 257.981C165.1 258.772 163.063 259.957 161.366 261.538C159.711 263.074 158.417 265.028 157.484 267.399C156.593 269.726 156.147 272.47 156.147 275.632C156.147 278.661 156.593 281.34 157.484 283.667C158.417 285.95 159.711 287.882 161.366 289.462C163.063 290.999 165.1 292.185 167.475 293.019C169.894 293.809 172.567 294.204 175.494 294.204C178.422 294.204 181.074 293.809 183.449 293.019C185.868 292.228 187.904 291.065 189.559 289.528C191.256 287.948 192.55 286.016 193.441 283.733C194.375 281.405 194.841 278.705 194.841 275.632C194.841 272.602 194.375 269.924 193.441 267.597C192.55 265.27 191.256 263.316 189.559 261.735C187.904 260.111 185.868 258.881 183.449 258.047C181.074 257.213 178.422 256.796 175.494 256.796Z" fill="#FAAB5F"/>
<path d="M238.243 256.664L230.288 298.551H219.023L206.232 252.449H212.723L224.56 295.126L232.643 252.449H243.78L251.799 294.731L263.509 252.449H270L257.208 298.551H246.135L238.243 256.664Z" fill="#FAAB5F"/>
</svg>
